# xmcd
#
# Track frame offsets:
# 150
# 22534
# 39141
# 60280
# 72412
# 89063
# 110385
# 133847
# 153107
# 174787
# 187631
# 208547
# 224762
# 247568
# 260250
# 276498
# 295454
# 306440
# 322794
#
# Disc length: 4439 seconds
#
#
# Revision: 0
# Processed by: cddbd v1.5.2PL0 Copyright (c) Steve Scherf et al.
# Submitted via: FreeRIP 2.944 
#
DISCID=fe115513
DTITLE=McMurtry-L2006 - Telegraph-Days8
DYEAR=2006
DGENRE=Bluegrass
TTITLE0=801
TTITLE1=802
TTITLE2=803
TTITLE3=804
TTITLE4=805
TTITLE5=806
TTITLE6=807
TTITLE7=808
TTITLE8=809
TTITLE9=810
TTITLE10=811
TTITLE11=812
TTITLE12=813.
TTITLE13=814
TTITLE14=815
TTITLE15=816
TTITLE16=817
TTITLE17=818
TTITLE18=819
EXTD=by Larry McMutry read by Annie Potts\nRecorded Books
EXTT0=
EXTT1=
EXTT2=
EXTT3=
EXTT4=
EXTT5=
EXTT6=
EXTT7=
EXTT8=
EXTT9=
EXTT10=
EXTT11=
EXTT12=
EXTT13=
EXTT14=
EXTT15=
EXTT16=
EXTT17=
EXTT18=
PLAYORDER=
